<svg width="24" height="24" viewBox="0 0 24 24" fill="none" xmlns="http://www.w3.org/2000/svg">
<g clip-path="url(#clip0_489_191359)">
<path d="M17 3H7C5.11438 3 4.17157 3 3.58579 3.58579C3 4.17157 3 5.11438 3 7V17C3 18.8856 3 19.8284 3.58579 20.4142C4.17157 21 5.11438 21 7 21H17C18.8856 21 19.8284 21 20.4142 20.4142C21 19.8284 21 18.8856 21 17V7C21 5.11438 21 4.17157 20.4142 3.58579C19.8284 3 18.8856 3 17 3Z" stroke-width="2"/>
<path d="M12 3V21M7.5 3V21M16.5 3V21M21 12H3M21 7.95H3M21 16.05H3" stroke-linecap="round"/>
</g>
<defs>
<clipPath id="clip0_489_191359">
<rect width="24" height="24" fill="white"/>
</clipPath>
</defs>
</svg>
