<svg width="24" height="24" viewBox="0 0 24 24" fill="none" xmlns="http://www.w3.org/2000/svg">
<g clip-path="url(#clip0_489_191360)">
<path d="M18.6353 7.14115L18.871 7.27907C19.3353 7.5507 19.4943 8.15229 19.2263 8.62277L16.842 12.6415C16.5739 13.112 15.9803 13.2732 15.5161 13.0016L15.2804 12.8637C14.642 12.4901 14.2123 11.8359 14.1185 11.0949C14.0508 10.5599 13.4898 10.2456 13.0068 10.4722L12.3985 10.7575C12.1488 10.8746 11.8585 10.8614 11.6202 10.7219L8.8813 9.26914C8.53505 9.06654 8.37601 8.64593 8.5 8.2607L8.76629 7.14967C8.84895 6.89285 8.74451 6.60757 8.5 6.50003C6.54797 5.64155 4 6.48236 4 5.00002C4 3.51767 8.91944 1.60587 12.1868 3.51769L14.9761 5.00002C15.2144 5.13945 15.3699 5.38703 15.3947 5.66477L15.455 6.34136C15.5029 6.87855 16.052 7.21383 16.543 7.00574C17.2231 6.71752 17.9969 6.7676 18.6353 7.14115Z" stroke-width="2"/>
<path d="M8.5 9.5L3.4928 18.7404C3.22748 19.1523 3.35787 19.7056 3.77825 19.9516L5.32232 20.8551C5.74269 21.101 6.28065 20.9388 6.50001 20.5L11 11" stroke-width="2"/>
</g>
<defs>
<clipPath id="clip0_489_191360">
<rect width="24" height="24" fill="white"/>
</clipPath>
</defs>
</svg>
